<svg xmlns="http://www.w3.org/2000/svg" viewBox="0 0 1200 760" fill="none">
  <rect width="1200" height="760" rx="28" fill="#050816"/>
  <rect x="16" y="16" width="1168" height="728" rx="24" fill="#F4F7FB"/>
  <rect x="16" y="16" width="204" height="728" rx="24" fill="#182233"/>
  <rect x="42" y="42" width="112" height="14" rx="7" fill="#FFFFFF" fill-opacity="0.92"/>
  <g fill="#CBD5E1">
    <rect x="42" y="170" width="14" height="14" rx="4"/>
    <rect x="70" y="172" width="92" height="10" rx="5"/>
    <rect x="42" y="220" width="14" height="14" rx="4"/>
    <rect x="70" y="222" width="86" height="10" rx="5"/>
    <rect x="42" y="270" width="14" height="14" rx="4"/>
    <rect x="70" y="272" width="82" height="10" rx="5"/>
    <rect x="42" y="320" width="14" height="14" rx="4"/>
    <rect x="70" y="322" width="74" height="10" rx="5"/>
  </g>
  <rect x="254" y="44" width="914" height="74" rx="22" fill="#020617"/>
  <rect x="286" y="74" width="210" height="16" rx="8" fill="#FFFFFF" fill-opacity="0.96"/>
  <rect x="254" y="150" width="914" height="560" rx="22" fill="#FFFFFF" stroke="#D8E2F0" stroke-width="2"/>
  <rect x="286" y="176" width="146" height="14" rx="7" fill="#0F172A" fill-opacity="0.92"/>
  <rect x="286" y="224" width="882" height="2" rx="1" fill="#E2E8F0"/>
  <g fill="#64748B" fill-opacity="0.78">
    <rect x="286" y="250" width="140" height="14" rx="7"/>
    <rect x="504" y="250" width="118" height="14" rx="7"/>
    <rect x="686" y="250" width="88" height="14" rx="7"/>
    <rect x="840" y="250" width="106" height="14" rx="7"/>
    <rect x="998" y="250" width="124" height="14" rx="7"/>
  </g>
  <g stroke="#E2E8F0" stroke-width="2">
    <path d="M286 318H1122"/>
    <path d="M286 396H1122"/>
    <path d="M286 474H1122"/>
    <path d="M286 552H1122"/>
    <path d="M286 630H1122"/>
  </g>
  <g fill="#0F172A" fill-opacity="0.9">
    <rect x="286" y="280" width="114" height="12" rx="6"/>
    <rect x="286" y="358" width="178" height="12" rx="6"/>
    <rect x="286" y="436" width="166" height="12" rx="6"/>
    <rect x="286" y="514" width="156" height="12" rx="6"/>
    <rect x="286" y="592" width="108" height="12" rx="6"/>
  </g>
  <g fill="#64748B" fill-opacity="0.82">
    <rect x="504" y="280" width="84" height="12" rx="6"/>
    <rect x="504" y="358" width="92" height="12" rx="6"/>
    <rect x="504" y="436" width="92" height="12" rx="6"/>
    <rect x="504" y="514" width="90" height="12" rx="6"/>
    <rect x="504" y="592" width="90" height="12" rx="6"/>
    <rect x="686" y="280" width="52" height="12" rx="6"/>
    <rect x="686" y="358" width="56" height="12" rx="6"/>
    <rect x="686" y="436" width="90" height="12" rx="6"/>
    <rect x="686" y="514" width="64" height="12" rx="6"/>
    <rect x="686" y="592" width="20" height="12" rx="6"/>
    <rect x="840" y="272" width="100" height="28" rx="14" fill="#DBEAFE"/>
    <rect x="840" y="358" width="116" height="12" rx="6"/>
    <rect x="840" y="436" width="112" height="12" rx="6"/>
    <rect x="840" y="514" width="112" height="12" rx="6"/>
    <rect x="840" y="592" width="112" height="12" rx="6"/>
    <rect x="998" y="358" width="124" height="12" rx="6"/>
    <rect x="998" y="436" width="124" height="12" rx="6"/>
    <rect x="998" y="514" width="124" height="12" rx="6"/>
    <rect x="998" y="592" width="124" height="12" rx="6"/>
  </g>
  <g fill="#34D399">
    <circle cx="640" cy="286" r="10"/>
    <circle cx="640" cy="364" r="10"/>
    <circle cx="640" cy="442" r="10"/>
    <circle cx="640" cy="520" r="10"/>
  </g>
  <circle cx="640" cy="598" r="10" fill="#EF4444"/>
</svg>