<svg xmlns="http://www.w3.org/2000/svg" viewBox="0 0 1200 760" fill="none">
  <rect width="1200" height="760" rx="28" fill="#050816"/>
  <rect x="16" y="16" width="1168" height="728" rx="24" fill="#F4F7FB"/>
  <rect x="16" y="16" width="204" height="728" rx="24" fill="#182233"/>
  <rect x="42" y="42" width="112" height="14" rx="7" fill="#FFFFFF" fill-opacity="0.92"/>
  <g fill="#CBD5E1">
    <rect x="42" y="214" width="14" height="14" rx="4"/>
    <rect x="70" y="216" width="98" height="10" rx="5"/>
    <rect x="42" y="264" width="14" height="14" rx="4"/>
    <rect x="70" y="266" width="90" height="10" rx="5"/>
    <rect x="42" y="314" width="14" height="14" rx="4"/>
    <rect x="70" y="316" width="78" height="10" rx="5"/>
    <rect x="42" y="364" width="14" height="14" rx="4"/>
    <rect x="70" y="366" width="72" height="10" rx="5"/>
  </g>
  <rect x="254" y="44" width="914" height="74" rx="22" fill="#020617"/>
  <rect x="286" y="74" width="212" height="16" rx="8" fill="#FFFFFF" fill-opacity="0.96"/>
  <rect x="254" y="150" width="914" height="252" rx="22" fill="#FFFFFF" stroke="#D8E2F0" stroke-width="2"/>
  <rect x="286" y="176" width="184" height="14" rx="7" fill="#0F172A" fill-opacity="0.92"/>
  <g fill="#64748B" fill-opacity="0.82">
    <rect x="286" y="232" width="148" height="12" rx="6"/>
    <rect x="708" y="232" width="158" height="12" rx="6"/>
    <rect x="286" y="322" width="136" height="12" rx="6"/>
    <rect x="708" y="322" width="148" height="12" rx="6"/>
  </g>
  <g fill="#CBD5E1">
    <rect x="286" y="262" width="356" height="18" rx="9"/>
    <rect x="286" y="352" width="356" height="18" rx="9"/>
    <rect x="708" y="262" width="320" height="18" rx="9"/>
    <rect x="708" y="352" width="320" height="18" rx="9"/>
  </g>
  <rect x="254" y="426" width="914" height="286" rx="22" fill="#FFFFFF" stroke="#D8E2F0" stroke-width="2"/>
  <g fill="#94A3B8" fill-opacity="0.82">
    <rect x="566" y="518" width="18" height="18" rx="4"/>
    <rect x="566" y="552" width="18" height="18" rx="4"/>
    <rect x="566" y="586" width="18" height="18" rx="4"/>
    <rect x="598" y="522" width="64" height="10" rx="5"/>
    <rect x="598" y="556" width="64" height="10" rx="5"/>
    <rect x="598" y="590" width="64" height="10" rx="5"/>
  </g>
  <rect x="490" y="640" width="446" height="14" rx="7" fill="#64748B" fill-opacity="0.82"/>
  <rect x="394" y="676" width="638" height="10" rx="5" fill="#94A3B8" fill-opacity="0.68"/>
</svg>